# xmcd
#
# Track frame offsets:
#	150
#	13083
#	21224
#	30630
#	44908
#	59525
#	70412
#	83834
#	91187
#	96800
#	106828
#
# Disc length: 1726 seconds
#
# Revision: 1
# Processed by: cddbd v1.5.2PL0 Copyright (c) Steve Scherf et al.
# Submitted via: audiograbber 1.83.01
#
DISCID=8d06bc0b
DTITLE=David Scully - Flatcut F
DYEAR=2008
DGENRE=Blues
TTITLE0=Riley's Wail
TTITLE1=Little Birdie
TTITLE2=Sam's Rag (Sam Chatmon)
TTITLE3=Old Country Rock (William Moore)
TTITLE4=They're Red Hot (Robert Johnson)
TTITLE5=Stovepipe Stomp (Big Bill Broonzy)
TTITLE6=I'm Busy and You Can't Come In (Sylvester Weaver)
TTITLE7=John Brown's Dream
TTITLE8=Ida Red
TTITLE9=Things 'Bout Comin' My Way (Tampa Red)
TTITLE10=Waves of the Water (Fred McDowell)
EXTD=
EXTT0=
EXTT1=
EXTT2=
EXTT3=
EXTT4=
EXTT5=
EXTT6=
EXTT7=
EXTT8=
EXTT9=
EXTT10=
PLAYORDER=
